<svg xmlns="http://www.w3.org/2000/svg" xmlns:xlink="http://www.w3.org/1999/xlink" width="2000" zoomAndPan="magnify" viewBox="0 0 1500 1499.999933" height="2000" preserveAspectRatio="xMidYMid meet" version="1.0"><defs><g/><clipPath id="6d57f4ec7f"><path d="M 781 908 L 1349 908 L 1349 1349.96875 L 781 1349.96875 Z M 781 908 " clip-rule="nonzero"/></clipPath></defs><path fill="#3b6cf4" d="M 371.464844 0 L 1128.535156 0 C 1134.613281 0 1140.6875 0.148438 1146.761719 0.449219 C 1152.832031 0.746094 1158.894531 1.191406 1164.945312 1.789062 C 1170.996094 2.382812 1177.027344 3.128906 1183.039062 4.019531 C 1189.054688 4.914062 1195.039062 5.953125 1201.003906 7.136719 C 1206.964844 8.324219 1212.894531 9.65625 1218.792969 11.132812 C 1224.691406 12.609375 1230.546875 14.230469 1236.363281 15.996094 C 1242.183594 17.761719 1247.953125 19.667969 1253.675781 21.714844 C 1259.402344 23.761719 1265.070312 25.949219 1270.6875 28.277344 C 1276.304688 30.601562 1281.859375 33.066406 1287.355469 35.664062 C 1292.851562 38.265625 1298.28125 40.996094 1303.640625 43.863281 C 1309.003906 46.726562 1314.292969 49.722656 1319.503906 52.847656 C 1324.71875 55.972656 1329.855469 59.226562 1334.910156 62.601562 C 1339.964844 65.980469 1344.933594 69.480469 1349.816406 73.101562 C 1354.699219 76.722656 1359.488281 80.460938 1364.191406 84.320312 C 1368.890625 88.175781 1373.492188 92.144531 1377.996094 96.226562 C 1382.5 100.308594 1386.902344 104.5 1391.199219 108.800781 C 1395.5 113.097656 1399.6875 117.5 1403.773438 122.003906 C 1407.855469 126.507812 1411.824219 131.109375 1415.679688 135.808594 C 1419.539062 140.507812 1423.277344 145.300781 1426.898438 150.183594 C 1430.519531 155.066406 1434.019531 160.035156 1437.394531 165.089844 C 1440.773438 170.144531 1444.023438 175.28125 1447.152344 180.492188 C 1450.277344 185.707031 1453.273438 190.996094 1456.136719 196.359375 C 1459.003906 201.71875 1461.734375 207.148438 1464.335938 212.644531 C 1466.933594 218.140625 1469.398438 223.695312 1471.722656 229.3125 C 1474.050781 234.929688 1476.238281 240.597656 1478.285156 246.324219 C 1480.332031 252.046875 1482.238281 257.816406 1484.003906 263.636719 C 1485.769531 269.453125 1487.390625 275.308594 1488.867188 281.207031 C 1490.34375 287.105469 1491.675781 293.035156 1492.863281 298.996094 C 1494.046875 304.957031 1495.085938 310.945312 1495.980469 316.960938 C 1496.871094 322.972656 1497.613281 329.003906 1498.210938 335.054688 C 1498.808594 341.105469 1499.253906 347.167969 1499.550781 353.238281 C 1499.851562 359.3125 1500 365.386719 1500 371.464844 L 1500 1128.535156 C 1500 1134.613281 1499.851562 1140.6875 1499.550781 1146.761719 C 1499.253906 1152.832031 1498.808594 1158.894531 1498.210938 1164.945312 C 1497.613281 1170.996094 1496.871094 1177.027344 1495.980469 1183.039062 C 1495.085938 1189.054688 1494.046875 1195.039062 1492.863281 1201.003906 C 1491.675781 1206.964844 1490.34375 1212.894531 1488.867188 1218.792969 C 1487.390625 1224.691406 1485.769531 1230.546875 1484.003906 1236.363281 C 1482.238281 1242.183594 1480.332031 1247.953125 1478.285156 1253.675781 C 1476.238281 1259.402344 1474.050781 1265.070312 1471.722656 1270.6875 C 1469.398438 1276.304688 1466.933594 1281.859375 1464.335938 1287.355469 C 1461.734375 1292.851562 1459.003906 1298.28125 1456.136719 1303.640625 C 1453.273438 1309.003906 1450.277344 1314.292969 1447.152344 1319.503906 C 1444.027344 1324.71875 1440.773438 1329.855469 1437.398438 1334.910156 C 1434.019531 1339.964844 1430.519531 1344.933594 1426.898438 1349.816406 C 1423.277344 1354.699219 1419.539062 1359.488281 1415.679688 1364.1875 C 1411.824219 1368.890625 1407.855469 1373.492188 1403.773438 1377.996094 C 1399.691406 1382.5 1395.5 1386.902344 1391.199219 1391.199219 C 1386.902344 1395.5 1382.5 1399.6875 1377.996094 1403.773438 C 1373.492188 1407.855469 1368.890625 1411.824219 1364.191406 1415.679688 C 1359.488281 1419.539062 1354.699219 1423.277344 1349.816406 1426.898438 C 1344.933594 1430.519531 1339.964844 1434.019531 1334.910156 1437.394531 C 1329.855469 1440.773438 1324.71875 1444.023438 1319.503906 1447.152344 C 1314.292969 1450.277344 1309.003906 1453.273438 1303.640625 1456.136719 C 1298.28125 1459.003906 1292.851562 1461.734375 1287.355469 1464.335938 C 1281.859375 1466.933594 1276.304688 1469.398438 1270.6875 1471.722656 C 1265.070312 1474.050781 1259.402344 1476.238281 1253.675781 1478.285156 C 1247.953125 1480.332031 1242.183594 1482.238281 1236.363281 1484.003906 C 1230.546875 1485.769531 1224.691406 1487.390625 1218.792969 1488.867188 C 1212.894531 1490.34375 1206.964844 1491.675781 1201.003906 1492.863281 C 1195.039062 1494.046875 1189.054688 1495.085938 1183.039062 1495.980469 C 1177.027344 1496.871094 1170.996094 1497.613281 1164.945312 1498.210938 C 1158.894531 1498.808594 1152.832031 1499.253906 1146.761719 1499.550781 C 1140.6875 1499.851562 1134.613281 1500 1128.535156 1500 L 371.464844 1500 C 365.386719 1500 359.3125 1499.851562 353.238281 1499.550781 C 347.167969 1499.253906 341.105469 1498.808594 335.054688 1498.210938 C 329.003906 1497.613281 322.972656 1496.871094 316.960938 1495.980469 C 310.945312 1495.085938 304.957031 1494.046875 298.996094 1492.863281 C 293.035156 1491.675781 287.105469 1490.34375 281.207031 1488.867188 C 275.308594 1487.390625 269.453125 1485.769531 263.636719 1484.003906 C 257.816406 1482.238281 252.046875 1480.332031 246.324219 1478.285156 C 240.597656 1476.238281 234.929688 1474.050781 229.3125 1471.722656 C 223.695312 1469.398438 218.140625 1466.933594 212.644531 1464.335938 C 207.148438 1461.734375 201.71875 1459.003906 196.359375 1456.136719 C 190.996094 1453.273438 185.707031 1450.277344 180.492188 1447.152344 C 175.28125 1444.023438 170.144531 1440.773438 165.089844 1437.394531 C 160.035156 1434.019531 155.066406 1430.519531 150.183594 1426.898438 C 145.300781 1423.277344 140.507812 1419.539062 135.808594 1415.679688 C 131.109375 1411.824219 126.507812 1407.855469 122.003906 1403.773438 C 117.5 1399.6875 113.097656 1395.5 108.800781 1391.199219 C 104.5 1386.902344 100.308594 1382.5 96.226562 1377.996094 C 92.144531 1373.492188 88.175781 1368.890625 84.320312 1364.1875 C 80.460938 1359.488281 76.722656 1354.699219 73.101562 1349.816406 C 69.480469 1344.933594 65.980469 1339.964844 62.601562 1334.910156 C 59.226562 1329.855469 55.972656 1324.71875 52.847656 1319.503906 C 49.722656 1314.292969 46.726562 1309.003906 43.863281 1303.640625 C 40.996094 1298.28125 38.265625 1292.851562 35.664062 1287.355469 C 33.066406 1281.859375 30.601562 1276.304688 28.277344 1270.6875 C 25.949219 1265.070312 23.761719 1259.402344 21.714844 1253.675781 C 19.667969 1247.953125 17.761719 1242.183594 15.996094 1236.363281 C 14.230469 1230.546875 12.609375 1224.691406 11.132812 1218.792969 C 9.65625 1212.894531 8.324219 1206.964844 7.136719 1201.003906 C 5.953125 1195.039062 4.914062 1189.054688 4.019531 1183.039062 C 3.128906 1177.027344 2.382812 1170.996094 1.789062 1164.945312 C 1.191406 1158.894531 0.746094 1152.832031 0.449219 1146.761719 C 0.148438 1140.6875 0 1134.613281 0 1128.535156 L 0 371.464844 C 0 365.386719 0.148438 359.3125 0.449219 353.238281 C 0.746094 347.167969 1.191406 341.105469 1.789062 335.054688 C 2.382812 329.003906 3.128906 322.972656 4.019531 316.960938 C 4.914062 310.945312 5.953125 304.957031 7.136719 298.996094 C 8.324219 293.035156 9.65625 287.105469 11.132812 281.207031 C 12.609375 275.308594 14.230469 269.453125 15.996094 263.636719 C 17.761719 257.816406 19.667969 252.046875 21.714844 246.324219 C 23.761719 240.597656 25.949219 234.929688 28.277344 229.3125 C 30.601562 223.695312 33.066406 218.140625 35.664062 212.644531 C 38.265625 207.148438 40.996094 201.71875 43.863281 196.359375 C 46.726562 190.996094 49.722656 185.707031 52.847656 180.492188 C 55.972656 175.28125 59.226562 170.144531 62.601562 165.089844 C 65.980469 160.035156 69.480469 155.066406 73.101562 150.183594 C 76.722656 145.300781 80.460938 140.507812 84.320312 135.808594 C 88.175781 131.109375 92.144531 126.507812 96.226562 122.003906 C 100.308594 117.5 104.5 113.097656 108.800781 108.800781 C 113.097656 104.5 117.5 100.308594 122.003906 96.226562 C 126.507812 92.144531 131.109375 88.175781 135.808594 84.320312 C 140.507812 80.460938 145.300781 76.722656 150.183594 73.101562 C 155.066406 69.480469 160.035156 65.980469 165.089844 62.601562 C 170.144531 59.226562 175.28125 55.972656 180.492188 52.847656 C 185.707031 49.722656 190.996094 46.726562 196.359375 43.863281 C 201.71875 40.996094 207.148438 38.265625 212.644531 35.664062 C 218.140625 33.066406 223.695312 30.601562 229.3125 28.277344 C 234.929688 25.949219 240.597656 23.761719 246.324219 21.714844 C 252.046875 19.667969 257.816406 17.761719 263.636719 15.996094 C 269.453125 14.230469 275.308594 12.609375 281.207031 11.132812 C 287.105469 9.65625 293.035156 8.324219 298.996094 7.136719 C 304.957031 5.953125 310.945312 4.914062 316.960938 4.019531 C 322.972656 3.128906 329.003906 2.382812 335.054688 1.789062 C 341.105469 1.191406 347.167969 0.746094 353.238281 0.449219 C 359.3125 0.148438 365.386719 0 371.464844 0 Z M 371.464844 0 " fill-opacity="1" fill-rule="nonzero"/><g clip-path="url(#6d57f4ec7f)"><path fill="#ffffff" d="M 872.769531 1047.53125 C 870.28125 1047.53125 866.195312 1049.035156 864.386719 1050.910156 L 783.933594 1133.046875 C 780.324219 1136.691406 780.328125 1141.183594 783.933594 1144.78125 L 910.402344 1264.898438 L 992.535156 1347.039062 C 994.359375 1348.859375 996.753906 1350.363281 999.242188 1350.363281 C 1001.082031 1350.363281 1002.824219 1348.433594 1004.269531 1347.039062 L 1086.402344 1266.574219 L 1346.222656 1006.753906 C 1349.875 1003.160156 1349.863281 996.957031 1346.222656 993.34375 L 1264.082031 911.210938 C 1260.433594 907.617188 1255.949219 907.5625 1252.347656 911.210938 L 999.238281 1164.320312 L 879.476562 1050.910156 C 877.667969 1049.085938 875.257812 1047.53125 872.769531 1047.53125 L 872.773438 1047.53125 Z M 872.769531 1047.53125 " fill-opacity="1" fill-rule="nonzero"/></g><g fill="#ffffff" fill-opacity="1"><g transform="translate(150.00002, 1035.056214)"><g><path d="M 466.109375 13.1875 C 407.472656 13.1875 352.867188 2.5625 302.296875 -18.6875 C 251.734375 -39.9375 207.394531 -69.613281 169.28125 -107.71875 C 131.175781 -145.832031 101.5 -190.539062 80.25 -241.84375 C 59 -293.144531 48.375 -349.207031 48.375 -410.03125 C 48.375 -470.863281 58.628906 -527.113281 79.140625 -578.78125 C 99.660156 -630.445312 128.609375 -675.148438 165.984375 -712.890625 C 203.367188 -750.628906 247.160156 -779.941406 297.359375 -800.828125 C 347.554688 -821.722656 402.335938 -832.171875 461.703125 -832.171875 C 521.066406 -832.171875 574.382812 -822.273438 621.65625 -802.484375 C 668.925781 -782.703125 709.050781 -756.320312 742.03125 -723.34375 C 775.007812 -690.363281 798.457031 -653.71875 812.375 -613.40625 L 661.78125 -540.859375 C 647.851562 -580.429688 623.484375 -613.222656 588.671875 -639.234375 C 553.859375 -665.253906 511.535156 -678.265625 461.703125 -678.265625 C 413.335938 -678.265625 370.832031 -666.90625 334.1875 -644.1875 C 297.539062 -621.46875 269.140625 -590.132812 248.984375 -550.1875 C 228.835938 -510.25 218.765625 -463.53125 218.765625 -410.03125 C 218.765625 -356.53125 229.390625 -309.625 250.640625 -269.3125 C 271.890625 -229.007812 301.019531 -197.5 338.03125 -174.78125 C 375.039062 -152.0625 417.734375 -140.703125 466.109375 -140.703125 C 503.484375 -140.703125 538.472656 -147.847656 571.078125 -162.140625 C 603.691406 -176.429688 630.078125 -197.132812 650.234375 -224.25 C 670.390625 -251.375 680.46875 -283.988281 680.46875 -322.09375 L 680.46875 -390.25 L 758.515625 -324.296875 L 461.703125 -324.296875 L 461.703125 -467.203125 L 850.859375 -467.203125 L 850.859375 -380.359375 C 850.859375 -313.671875 839.863281 -255.59375 817.875 -206.125 C 795.882812 -156.65625 766.382812 -115.613281 729.375 -83 C 692.375 -50.382812 650.96875 -26.195312 605.15625 -10.4375 C 559.351562 5.3125 513.003906 13.1875 466.109375 13.1875 Z M 466.109375 13.1875 "/></g></g></g></svg>